<svg id="Bands_Diamond" data-name="Bands Diamond" xmlns="http://www.w3.org/2000/svg" width="256" height="256" viewBox="0 0 256 256">
  <defs>
    <style>
      .cls-1 {
        fill: #fff;
      }

      .cls-1, .cls-2, .cls-3, .cls-4, .cls-5, .cls-6 {
        fill-rule: evenodd;
      }

      .cls-2 {
        fill: #036;
      }

      .cls-3 {
        fill: #bfbfbf;
      }

      .cls-4 {
        stroke: #000;
        stroke-width: 1px;
      }

      .cls-6 {
        fill: #a60000;
      }
    </style>
  </defs>
  <path id="BG" class="cls-1" d="M128,23L233,128,128,234,23,128Z"/>
  <path id="OuterBand" class="cls-2" d="M128,19.46L236.54,128,128,236.54,19.46,128Zm0,5.427L231.113,128,128,231.113,24.887,128Z"/>
  <path id="ColorBand_GRAY" data-name="ColorBand GRAY" class="cls-3" d="M128,0.14L255.86,128,128,255.86,0.14,128Zm0,19.32L236.54,128,128,236.54,19.46,128Z"/>
  <g id="Group_12_copy_3" data-name="Group 12 copy 3">
    <path id="sun_copy_2" data-name="sun copy 2" class="cls-4" d="M127.3,64h1.4a2,2,0,0,1,2,2v9.5a2,2,0,0,1-2,2h-1.4a2,2,0,0,1-2-2V66A2,2,0,0,1,127.3,64Zm25.131,5.294,0.989-.99a2,2,0,0,0,0-2.828L146.7,58.758a2,2,0,0,0-2.828,0l-0.99.99a2,2,0,0,0,0,2.828l6.717,6.718A2,2,0,0,0,152.431,69.294Zm-48.512,0-0.989-.99a2,2,0,0,1,0-2.828l6.717-6.718a2,2,0,0,1,2.828,0l0.99,0.99a2,2,0,0,1,0,2.828l-6.717,6.718A2,2,0,0,1,103.919,69.294Z"/>
    <path class="cls-5" d="M128,60a18.976,18.976,0,0,1-15.843-8.521l4.572-4.572a12.725,12.725,0,0,0,22.49.107l4.564,4.563A18.979,18.979,0,0,1,128,60Z"/>
    <path id="white" class="cls-1" d="M95,120h68l25,38-5,6H75l-6-5Z"/>
    <path id="panel" class="cls-5" d="M133.1,138.165a3.923,3.923,0,0,0,2.212.776h9.758c1.469,0,2.661-1.191,1.774-2.661l-2.661-9.758a4.124,4.124,0,0,0-3.549-2.662H140.6l2.022-3.86H162c3.266,0,4.832,1.734,7,5l20,33a5.8,5.8,0,0,1-.117,1.131l-4.752,4.752A5.8,5.8,0,0,1,183,164H119.571l3.856-7.36c0.15-.209.294-0.424,0.424-0.646v-0.165Zm36.148-1.885-5.323-9.758c-0.776-1.3-2.078-2.662-3.548-2.662h-9.757c-1.47,0-2.772,1.192-1.774,2.662l3.548,9.758c0.832,1.415,2.078,2.661,3.548,2.661h11.532C168.947,138.941,170.139,137.75,169.252,136.28Zm-13.306,9.956,3.548,9.758c0.832,1.415,2.079,2.662,3.548,2.662h15.08c1.47,0,2.661-1.192,1.774-2.662l-5.322-9.758c-0.776-1.3-2.079-2.661-3.548-2.661H157.72C156.25,143.575,154.948,144.766,155.946,146.236Zm-23.782,9.758c0.832,1.415,2.079,2.662,3.548,2.662h15.967c1.47,0,2.661-1.192,1.774-2.662l-3.548-9.758c-0.776-1.3-2.079-2.661-3.548-2.661H133.938c-1.47,0-1.774,1.08-1.774,2.661v9.758ZM95,120h26.551l-0.867,3.86h-5.307a4.122,4.122,0,0,0-3.548,2.662l-2.661,9.758c-0.887,1.47.3,2.661,1.774,2.661H117.3l-1.04,4.634h-6.6c-1.47,0-2.772,1.357-3.549,2.661l-3.548,9.758c-0.887,1.47.305,2.662,1.774,2.662h8.537l-1.2,5.344H74a5.874,5.874,0,0,1-3.058-.886l-2.056-2.056A5.875,5.875,0,0,1,68,158l20-33C89.774,121.734,91.734,120,95,120ZM81.44,146.236l-5.322,9.758c-0.887,1.47.3,2.662,1.774,2.662h15.08c1.47,0,2.717-1.247,3.548-2.662l3.548-9.758c1-1.47-.3-2.661-1.774-2.661H84.988C83.519,143.575,82.216,144.932,81.44,146.236Zm7.095-7.295h11.531c1.47,0,2.717-1.246,3.549-2.661l3.548-9.758c1-1.47-.3-2.662-1.774-2.662H95.631c-1.47,0-2.772,1.358-3.548,2.662l-5.322,9.758C85.874,137.75,87.065,138.941,88.535,138.941ZM81.828,174l-6-6H180.014l-6,6H131v14.918A5.891,5.891,0,0,1,133.552,192H140c1.089,0,3,.911,3,2v2c0,1.089-1.911,2-3,2H116c-1.089,0-3-.911-3-2v-2c0-1.089,1.911-2,3-2h6.462A5.89,5.89,0,0,1,125,188.926V174H81.828Z"/>
    <path id="Rectangle_32_copy_6" data-name="Rectangle 32 copy 6" class="cls-6" d="M109,116l16-35h18l-11,24h15l-32,60,11-49H109Z"/>
  </g>
</svg>
