<svg id="Bands" xmlns="http://www.w3.org/2000/svg" width="256" height="256" viewBox="0 0 256 256">
  <defs>
    <style>
      .cls-1, .cls-4 {
        fill: #fff;
      }

      .cls-2 {
        fill: #036;
      }

      .cls-2, .cls-3, .cls-4 {
        fill-rule: evenodd;
      }
    </style>
  </defs>
  <circle id="BG" class="cls-1" cx="128" cy="128" r="105.281"/>
  <path id="OuterBand" class="cls-2" d="M128,19.46A108.54,108.54,0,1,1,19.46,128,108.54,108.54,0,0,1,128,19.46Zm0,5.427A103.113,103.113,0,1,1,24.887,128,103.113,103.113,0,0,1,128,24.887Z"/>
  <g>
    <path id="House_copy_19" data-name="House copy 19" class="cls-3" d="M190,130v67H66V130H46v-5s14.1-16.5,33-38V50H98V66s26.067-27.842,26.876-28.651c2.452-2.453,3.864-2.316,6.18,0S212,126,212,126v4H190Z"/>
    <path id="wrench" class="cls-4" d="M180.388,187.651c-6.088,6.088-11.615,1.913-13.528,0-11.025-11.025-24.961-25.489-36.578-37.662l13.792-14.778c13.047,13.658,28.759,30,37.667,38.912C184.129,176.512,186.475,181.563,180.388,187.651Zm-50.923-67.77-14.249,14.248c-4.851-5.13-7.879-8.354-7.879-8.354s-14.881,2.593-24.351-5.411c-7.518-6.355-8.473-21.586-6.764-23,2.861-1.273,5.806,4.259,10.822,9.47,2.926,3.04,6.556,2.535,8.117,1.353,1.513-1.146,5.456-6.566,6.763-8.117,2.168-2.57,3.776-4.5,1.353-6.764-5.027-4.694-11.924-10.372-10.822-12.175C93.761,79,108.2,78.457,116.806,87.9c7.3,8,5.805,18.118,5.411,24.35C122.217,112.247,125.023,115.208,129.465,119.881Z"/>
    <path id="screwdriver" class="cls-4" d="M150.76,99.114l20.93-11.773,6.54,6.541-11.773,20.93H157.3l-34.627,34.627,7.848,9.157-5.057,5.057c-1.124,1.124-4.493-.74-6.715,1.483-2.755,2.754-.016,5.248-1.6,6.833l-16.713,16.713C96.714,192.4,83.8,191.89,78.2,186.065c-5.932-6.165-4.383-17.855-1.308-20.93,2.874-2.874,8.823-9.137,15.7-15.7,1.505-1.437,4.547.685,7.849-2.616,2.938-2.938,1.192-5.449,2.56-6.749,3.165-3.009,5.289-5.024,5.289-5.024l6.54,6.54,35.935-34.627V99.114Z"/>
  </g>
</svg>
