<svg id="Bands" xmlns="http://www.w3.org/2000/svg" width="256" height="256" viewBox="0 0 256 256">
  <defs>
    <style>
      .cls-1 {
        fill: #fff;
      }

      .cls-2 {
        fill: #036;
      }

      .cls-2, .cls-3, .cls-4, .cls-5, .cls-6 {
        fill-rule: evenodd;
      }

      .cls-3 {
        fill: #636363;
      }

      .cls-5 {
        fill: #ffb433;
        stroke: #000;
        stroke-width: 2px;
      }

      .cls-6 {
        fill: #a60000;
      }
    </style>
  </defs>
  <circle id="BG" class="cls-1" cx="128" cy="128" r="105.281"/>
  <path id="OuterBand" class="cls-2" d="M128,19.46A108.54,108.54,0,1,1,19.46,128,108.54,108.54,0,0,1,128,19.46Zm0,5.427A103.113,103.113,0,1,1,24.887,128,103.113,103.113,0,0,1,128,24.887Z"/>
  <g id="Group_11_copy_2" data-name="Group 11 copy 2">
    <path id="House_copy_31" data-name="House copy 31" class="cls-3" d="M92,201l-22.721,0A93.584,93.584,0,0,1,78.4,48.519C100.8,73.052,119,93,119,93v7l-27-.022V201Z"/>
    <path id="Rectangle_11_copy_2" data-name="Rectangle 11 copy 2" class="cls-4" d="M206,179.523V167h-7v20h1.517A94.1,94.1,0,0,1,190,197.982V194h-7v7H170v-7h-2v-7h2V167h-2v-7h2V140h-2v-7h2V123l2-4h9l2,4v10h7v-5h9v5h7V123l2-4h9l2,4v10h2.328c-0.124,2.36-.36,4.689-0.656,7H219v9.3A93.077,93.077,0,0,1,206,179.523ZM190,140h-7v20h7V140Zm0,27h-7v20h7V167Zm16-27h-7v20h7V140Z"/>
    <path class="cls-4" d="M220.545,141H168v-9h53.363C221.235,135.041,220.956,138.041,220.545,141ZM168,159h48.185a92.836,92.836,0,0,1-3.688,9H168v-9Zm0,36v-9h33.3a94.071,94.071,0,0,1-8.1,9H168Z"/>
    <path id="Rectangle_11_copy" data-name="Rectangle 11 copy" class="cls-5" d="M168,187v7h-5v7H150v-7h-7v7H130v-7h-7v7H110v-7h-7v7H94V130h9v3h7V123l2-4h9l2,4v10h7V123l2-4h9l2,4v10h7V123l2-4h9l2,4v10h5v7h-5v20h5v7h-5v20h5Zm-58-47h-7v20h7V140Zm0,27h-7v20h7V167Zm20-27h-7v20h7V140Zm0,27h-7v20h7V167Zm20-27h-7v20h7V140Zm0,27h-7v20h7V167Z"/>
    <path id="arrow_copy_8" data-name="arrow copy 8" class="cls-4" d="M166,67.944H135.99V79L107.56,61.626l28.43-17.374L136,55h30V67.944Z"/>
    <path id="fire_copy_16" data-name="fire copy 16" class="cls-6" d="M187.956,60.075c4.229,3.146,7.507,7.861,6.82,13.64-1.33,11.192,2.087,15.641,3.689,17.026,11.647,10.072,1.543-19.423,9.413-8.164,1.786,2.555,2.561,6.986,4.192,12.722,3.485,12.261-.5,23.245-14.092,22.478-0.053-12-4.066-7.622-8.8-18.7-9.739-22.789-3.793,17.967-11.452,18.968-2.625.158-6.076-.092-8.348-1.368a18.682,18.682,0,0,1-7.7-7.7c-1.905-4.21,2.265-9.695.7-14.8-1.172-3.835-.538-7.868.058-7.262,1.054,1.073,2.828,2.011,6.762,8.967,3.258,5.763,1.863-12.255,8.977-16.6C191.459,71.159,170.788,47.306,187.956,60.075Z"/>
  </g>
</svg>
