<svg id="Bands" xmlns="http://www.w3.org/2000/svg" width="256" height="256" viewBox="0 0 256 256">
  <defs>
    <style>
      .cls-1 {
        fill: #fff;
      }

      .cls-2 {
        fill: #036;
      }

      .cls-2, .cls-3, .cls-5, .cls-6 {
        fill-rule: evenodd;
      }

      .cls-3 {
        fill: #bfbfbf;
      }

      .cls-4 {
        fill: none;
      }

      .cls-5 {
        fill: #636363;
      }

      .cls-6 {
        fill: #ffb433;
        stroke: #000;
        stroke-width: 2px;
      }
    </style>
  </defs>
  <circle id="BG" class="cls-1" cx="128" cy="128" r="105.281"/>
  <path id="OuterBand" class="cls-2" d="M128,19.46A108.54,108.54,0,1,1,19.46,128,108.54,108.54,0,0,1,128,19.46Zm0,5.427A103.113,103.113,0,1,1,24.887,128,103.113,103.113,0,0,1,128,24.887Z"/>
  <path id="ColorBand_GRAY" data-name="ColorBand GRAY" class="cls-3" d="M128,0.14A127.86,127.86,0,1,1,.14,128,127.86,127.86,0,0,1,128,.14Zm0,19.32A108.54,108.54,0,1,1,19.46,128,108.54,108.54,0,0,1,128,19.46Z"/>
  <circle id="Ellipse_1_copy_2" data-name="Ellipse 1 copy 2" class="cls-4" cx="127.844" cy="127.844" r="92.187"/>
  <g id="Group_1_copy_6" data-name="Group 1 copy 6">
    <path id="House_copy_32" data-name="House copy 32" class="cls-5" d="M216.812,152H204v27.791a92.181,92.181,0,0,1-153-1.026V152c0.01,0-6.061.009-12.122,0.014a91.91,91.91,0,0,1-2.924-17.057C44.378,125.518,55.52,113.05,67,100.22V59H91V73.418C107.625,54.87,120.941,40.059,122,39c2.939-2.939,3.835-3.392,7,0,1.5,1.6,61.893,66.065,90.66,96.9A91.793,91.793,0,0,1,216.812,152Z"/>
    <g id="debris">
      <path id="Rectangle_1081_copy_8" data-name="Rectangle 1081 copy 8" class="cls-6" d="M44,147v-7h94v7H44Zm51-11a14.766,14.766,0,0,1,2.136-5.833A7.642,7.642,0,0,1,102,127l-4-7,2-4,8,8c0.624-.2,1.127-0.923,2-1l2-8,3,1-1,8a9.722,9.722,0,0,1,3,1l12-21,2,2-3,11,7-2,1,2-10,5-1,4c0.391,0.043,2.293.792,3,1l6-5,2,2-4.052,5.436A10.26,10.26,0,0,1,136,136H95Zm-7,0H82c-1.958,0-4.481-2.6-6-4-2.289-2.11-5.057-4.6-6-8-0.636-2.8,4.505.025,5,0,3.54-.175-4.772-3.679-5-7-0.164-2.391.1-5.972,2-8,0.918,1.31,2.386,4.163,3,4,1.489-.395.137-3.055,2-6,1.749-2.766,2.266-5.471,11-7,0.416,2.4.791,5.007,1,7,0.313,2.989-1.745,4.954-1,6s3.682-2.58,4-2c1.448,2.648,3.035,3.123,2,7-0.494,1.849-3.445,3.647-4,5-1.277,3.115,5.147-2.6,5,1C94.811,128.621,92.746,134.64,88,136Zm-34,0-9-9,2-3,13,7-3-6-11-5,1-3,8,3-6-10,1-4,10,12,1-9,2,1,1,14,11,12H54Z"/>
      <path id="Rectangle_1081_copy_9" data-name="Rectangle 1081 copy 9" class="cls-6" d="M127.53,64.215l5.161-4.729,63.506,69.3-5.161,4.729ZM170.1,94.385a14.775,14.775,0,0,1,5.744-2.366,7.641,7.641,0,0,1,5.621,1.447l2.459-7.678,4.3-1.228-0.494,11.3c0.573,0.322,1.443.208,2.089,0.8l7.249-3.93,1.29,2.887-6.574,4.667a9.68,9.68,0,0,1,1.289,2.888l23.59-5.341-0.123,2.826-10.137,5.22,6.2,3.81-0.8,2.088-10.442-4-3.625,1.965c0.232,0.317.965,2.226,1.289,2.888l7.74,1.046-0.123,2.825-6.745.686a10.26,10.26,0,0,1-2.1,7.421ZM165,89c-0.49-.546-3.109-3.522-3.687-4.2-1.323-1.444-1.111-5.06-1.1-7.126,0.01-3.113-.027-6.835,1.845-9.828,1.634-2.36,3.026,3.338,3.378,3.686,2.521,2.492-.512-6,1.783-8.415,1.652-1.736,4.469-3.962,7.249-3.93-0.345,1.562-1.456,4.572-.922,4.914,1.3,0.831,2.345-1.963,5.775-2.579,3.22-.579,5.564-2.026,12.592,3.381-1.491,1.931-3.156,3.966-4.485,5.466-1.992,2.25-4.831,2.06-5.1,3.316s4.39,0.972,4.177,1.6c-0.974,2.857-.252,4.347-3.81,6.2-1.7.885-5.017-.076-6.389,0.429-3.159,1.163,5.394,2.038,2.641,4.362C175.409,89.261,169.209,91.581,165,89ZM142.4,64.157l0.555-12.716,3.563-.552L150.136,65.2l2.4-6.265-3.745-11.488,2.887-1.289,3.193,7.925,3.32-11.18,3.624-1.965-2.091,15.48,7.311-5.343,0.614,2.15L158,63.422,156.584,79.64Z"/>
    </g>
  </g>
</svg>
