<svg id="Bands" xmlns="http://www.w3.org/2000/svg" width="256" height="256" viewBox="0 0 256 256">
  <defs>
    <style>
      .cls-1, .cls-3 {
        fill: #fff;
      }

      .cls-2 {
        fill: #036;
      }

      .cls-2, .cls-3, .cls-4 {
        fill-rule: evenodd;
      }
    </style>
  </defs>
  <circle id="BG" class="cls-1" cx="128" cy="128" r="105.281"/>
  <path id="OuterBand" class="cls-2" d="M128,19.46A108.54,108.54,0,1,1,19.46,128,108.54,108.54,0,0,1,128,19.46Zm0,5.427A103.113,103.113,0,1,1,24.887,128,103.113,103.113,0,0,1,128,24.887Z"/>
  <g id="Group_11_copy_11" data-name="Group 11 copy 11">
    <path id="Vent_copy_2" data-name="Vent copy 2" class="cls-3" d="M71.35,60.37h112.3c4.681,0,9.261,2.287,10.35,6.63C191.731,69.3,70.161,190.862,67,194a10.052,10.052,0,0,1-5.65-9.37V70.37A10,10,0,0,1,71.35,60.37Z"/>
    <path id="Rectangle_1009_copy" data-name="Rectangle 1009 copy" class="cls-4" d="M191,70s-0.344-7-7-7H71c-3.167,0-7,3.167-7,7V185c0,4.594,6,7,6,7l-3,3c-3.559-1.531-7-4.88-7-9V69A10,10,0,0,1,70,59H185a10.481,10.481,0,0,1,10,8C194.443,67.557,191.356,69.644,191,70ZM69.5,72A3.5,3.5,0,1,1,73,68.5,3.5,3.5,0,0,1,69.5,72ZM66,186.5a3.5,3.5,0,1,1,3.5,3.5A3.5,3.5,0,0,1,66,186.5ZM73,75a2.725,2.725,0,0,1,3-3H179a2.663,2.663,0,0,1,3,3c0,1.387,0,2.471,0,4l-4,4V76H77V179h5l-4,4H77c-1.981,0-4-1.036-4-3V75Zm8,78a6.914,6.914,0,0,1,7-7h27l-4,4H90c-3.645,0-5,2.033-5,4v7h15l2.233-2.233L89,172a7.269,7.269,0,0,1-1-4v-3H81V153Zm30-3-1.887,1.887L111,150h0Zm-3.05,3.05,1.163-1.163Zm-2.24,2.24,2.24-2.24ZM104.7,156.3l1.014-1.014Zm-2.463,2.463L104.7,156.3ZM88,135v-3H81V120a6.914,6.914,0,0,1,7-7h60l-29,29H95A6.914,6.914,0,0,1,88,135Zm45-7,11-11H90c-3.645,0-5,2.033-5,4v7h48ZM88,102V99H81V87a6.914,6.914,0,0,1,7-7h79a6.914,6.914,0,0,1,7,7l-5,5V88c0-1.968-1.355-4-5-4H90c-3.645,0-5,2.032-5,4v7h81l2.5-2.5L152,109H95A6.914,6.914,0,0,1,88,102Zm97.5-37a3.5,3.5,0,1,1-3.5,3.5A3.5,3.5,0,0,1,185.5,65Z"/>
    <path class="cls-3" d="M95,184l88-88h10v98H95V184Z"/>
    <path id="screen_copy_2" data-name="screen copy 2" class="cls-4" d="M193,168h-9v12h9v5h-9v9h-5v-9H167v9h-5v-9H150v9h-5v-9H133v9h-5v-9H116v9h-5v-9H99v9H95V184l4-4h12V168l5-5h12V151l5-5h12V134l5-5h12V117l5-5h12V100l4-4h10v4h-9v12h9v5h-9v12h9v5h-9v12h9v5h-9v12h9v5Zm-65,0H116v12h12V168Zm17-17H133v12h12V151Zm0,17H133v12h12V168Zm17-34H150v12h12V134Zm0,17H150v12h12V151Zm0,17H150v12h12V168Zm5,12h12V168H167v12Zm0-17h12V151H167v12Zm0-17h12V134H167v12Zm0-29v12h12V117H167Z"/>
  </g>
</svg>
