<svg id="Bands" xmlns="http://www.w3.org/2000/svg" width="256" height="256" viewBox="0 0 256 256">
  <defs>
    <style>
      .cls-1 {
        fill: #fff;
      }

      .cls-2 {
        fill: #036;
      }

      .cls-2, .cls-3, .cls-4, .cls-5 {
        fill-rule: evenodd;
      }

      .cls-3 {
        fill: #bfbfbf;
      }

      .cls-4 {
        fill: #ffb433;
        stroke: #000;
        stroke-width: 4px;
      }

      .cls-5 {
        fill: #a60000;
      }
    </style>
  </defs>
  <circle id="BG" class="cls-1" cx="128" cy="128" r="105.281"/>
  <path id="OuterBand" class="cls-2" d="M128,19.46A108.54,108.54,0,1,1,19.46,128,108.54,108.54,0,0,1,128,19.46Zm0,5.427A103.113,103.113,0,1,1,24.887,128,103.113,103.113,0,0,1,128,24.887Z"/>
  <path id="ColorBand_GRAY" data-name="ColorBand GRAY" class="cls-3" d="M128,0.14A127.86,127.86,0,1,1,.14,128,127.86,127.86,0,0,1,128,.14Zm0,19.32A108.54,108.54,0,1,1,19.46,128,108.54,108.54,0,0,1,128,19.46Z"/>
  <g id="Group_8_copy_3" data-name="Group 8 copy 3">
    <path id="Boxes" class="cls-4" d="M75,60H181c8.389,0,14,7.611,14,16V182c0,8.389-5.924,14.25-14.314,14.25L75,196c-8.389,0-14-5.611-14-14V76C61,67.611,66.611,60,75,60Z"/>
    <path id="fire_copy_3" data-name="fire copy 3" class="cls-5" d="M129.4,76.879c7.909,6.367,15,15.22,13.138,26.275-3.563,21.161,4.4,29.747,7.106,32.8C161.729,149.574,163.7,129.933,163,119c-0.428-6.638-1.47-11.954,5.808.576,3.015,5.193,8.159,12.449,8.192,24.424,0.063,24.556-4.171,39.327-27.9,44.549-3.017-28.408-14.33-21.867-20.1-39.549-6.155-18.85-6.945-20.192-10-12-1.419,3.805-.5,14.428,0,19,2.07,18.787-5.208,27.692-9.311,32.549C104.632,187.529,99.376,186.458,95,184c-8.611-4.837-13.469-10.617-15-14-5.836-8.776,2.99-18.658.129-27.433C77.006,132.988,79,124.668,80,128c0.71,2.376,5.689,4.454,13.267,17.852,6.276,11.1,2.706-25.492,16.794-33.206,17.353-9.5,9.724-32.783,6.412-41.2C114.289,65.906,115.462,65.667,129.4,76.879Z"/>
  </g>
</svg>
