<svg id="Bands" xmlns="http://www.w3.org/2000/svg" width="256" height="256" viewBox="0 0 256 256">
  <defs>
    <style>
      .cls-1 {
        fill: #fff;
      }

      .cls-2 {
        fill: #036;
      }

      .cls-2, .cls-3, .cls-4, .cls-5 {
        fill-rule: evenodd;
      }

      .cls-3 {
        fill: #bfbfbf;
      }

      .cls-5 {
        fill: #a60000;
      }
    </style>
  </defs>
  <circle id="BG" class="cls-1" cx="128" cy="128" r="105.281"/>
  <path id="OuterBand" class="cls-2" d="M128,19.46A108.54,108.54,0,1,1,19.46,128,108.54,108.54,0,0,1,128,19.46Zm0,5.427A103.113,103.113,0,1,1,24.887,128,103.113,103.113,0,0,1,128,24.887Z"/>
  <path id="ColorBand_GRAY" data-name="ColorBand GRAY" class="cls-3" d="M128,0.14A127.86,127.86,0,1,1,.14,128,127.86,127.86,0,0,1,128,.14Zm0,19.32A108.54,108.54,0,1,1,19.46,128,108.54,108.54,0,0,1,128,19.46Z"/>
  <g>
    <g id="trees_copy" data-name="trees copy">
      <path id="Tree_Tall_copy_2" data-name="Tree Tall copy 2" class="cls-4" d="M44.461,102.29c20.192-17.744,29.37-49.562,29.37-49.562s10.751,36.479,29.37,51.4c9.024,7.23-12.643,2.989-20.191-5.507,1.224,18.44,19.559,30.215,25.7,33.041,7.159,3.3-13.34,9.376-23.708,1.34-6.036-3.68-6,2.224-6,9,0,7.344,0,53,0,53H66V142c0.2-9,.358-10.932-5.018-8.5-11.81,6.711-30.9,4.526-22.027-1.836,6.459-4.631,23.863-16.438,23.863-33.041C45.086,110.477,37.606,108.315,44.461,102.29Z"/>
    </g>
    <g id="trees_copy_2" data-name="trees copy 2">
      <path id="Tree_Tall_copy_2-2" data-name="Tree Tall copy 2" class="cls-4" d="M155.461,102.29c20.192-17.744,29.37-49.562,29.37-49.562s10.751,36.479,29.37,51.4c9.024,7.23-12.643,2.989-20.191-5.507,1.223,18.44,19.559,30.215,25.7,33.041,7.159,3.3-13.34,9.376-23.708,1.34-6.036-3.68-6,2.224-6,9,0,7.773,0,53,0,53H177V142c0.2-9,.358-10.932-5.018-8.5-11.81,6.711-30.9,4.526-22.027-1.836,6.458-4.631,23.863-16.438,23.863-33.041C156.086,110.477,148.606,108.315,155.461,102.29Z"/>
    </g>
    <path id="Rectangle_641_copy_5" data-name="Rectangle 641 copy 5" class="cls-5" d="M161,189V175H149v6h-6v-6H131v6h-6v-6H113v6h-6v-6H95v14H89V155h6v14h12v-6h6v6h12v-6h6v6h12v-6h6v6h12V155h6v34h-6Z"/>
  </g>
</svg>
