<svg id="Bands" xmlns="http://www.w3.org/2000/svg" width="256" height="256" viewBox="0 0 256 256">
  <defs>
    <style>
      .cls-1 {
        fill: #fff;
      }

      .cls-2 {
        fill: #036;
      }

      .cls-2, .cls-3, .cls-4, .cls-5, .cls-6, .cls-7 {
        fill-rule: evenodd;
      }

      .cls-3 {
        fill: #bfbfbf;
      }

      .cls-4 {
        fill: #636363;
      }

      .cls-5 {
        fill: #ffb433;
        stroke: #000;
        stroke-width: 2px;
      }

      .cls-6 {
        fill: #a60000;
      }
    </style>
  </defs>
  <circle id="BG" class="cls-1" cx="128" cy="128" r="105.281"/>
  <path id="OuterBand" class="cls-2" d="M128,19.46A108.54,108.54,0,1,1,19.46,128,108.54,108.54,0,0,1,128,19.46Zm0,5.427A103.113,103.113,0,1,1,24.887,128,103.113,103.113,0,0,1,128,24.887Z"/>
  <path id="ColorBand_GRAY" data-name="ColorBand GRAY" class="cls-3" d="M128,0.14A127.86,127.86,0,1,1,.14,128,127.86,127.86,0,0,1,128,.14Zm0,19.32A108.54,108.54,0,1,1,19.46,128,108.54,108.54,0,0,1,128,19.46Z"/>
  <g id="Group_8_copy_9" data-name="Group 8 copy 9">
    <path id="House_copy_30" data-name="House copy 30" class="cls-4" d="M99,130H35.785c-0.016-.7-0.053-1.393-0.053-2.1a92.189,92.189,0,0,1,79.746-91.329L139,62v3H99v65Z"/>
    <path id="Deck_copy_3" data-name="Deck copy 3" class="cls-4" d="M99,97V93H211v41h-6v44.458a92.641,92.641,0,0,1-8,10.463V134H99v81.439C62.589,203.414,36.472,170.329,36,130H99v-8h8V97H99Zm98,25h8V97h-8v25Zm-14,0h8V97h-8v25Zm-14,0h8V97h-8v25Zm-14,0h8V97h-8v25Zm-14,0h8V97h-8v25Zm-14,0h8V97h-8v25Zm-14,0h8V97h-8v25Z"/>
    <path id="Slope_copy_2" data-name="Slope copy 2" class="cls-4" d="M127.921,220.093A92.046,92.046,0,0,1,99,215.439V199h87.609A91.8,91.8,0,0,1,127.921,220.093Z"/>
    <path id="Boxes" class="cls-5" d="M125,139h46c3.658,0,6,3.342,6,7v46a5.609,5.609,0,0,1-6,6H125a5.609,5.609,0,0,1-6-6V146C119,142.342,121.342,139,125,139Z"/>
    <path id="fire_copy_3" data-name="fire copy 3" class="cls-6" d="M148.649,146.208c3.281,2.973,6.306,6.6,5.729,11.458-1.117,9.4,1.918,12.971,3.1,14.3,8.517,9.6,2.89-19.385,8.359-7.14,1.068,2.39,3.176,5.413,3.19,10.635,0.028,10.709-1.437,17.165-11.783,19.442-1.316-12.388-5.029-7.716-8.594-17.187-8.181-21.731-3.2,10.8-8.593,17.187a21.162,21.162,0,0,1-6.19-2.282c-3.754-2.11-6.033-4.837-6.7-6.312-1.6-3.536.955-8.5,0-11.458-1.074-3.325-.527-5.885.048-6.1,0.722-.269,2.376,1.689,5.681,7.532,2.736,4.841,1.18-11.117,7.323-14.48C152.391,155.14,134.566,133.449,148.649,146.208Z"/>
    <path id="arrow_copy_12" data-name="arrow copy 12" class="cls-7" d="M212,132l5-12a130.4,130.4,0,0,1-20.667-10.668C191.319,106.085,184.6,101.082,181,97c-7.268-8.248-10.152-12.325-15.152-22.325C170.514,72.675,176,71,176,71L149,50l-5.023,33.071s5.363-2.415,9.863-4.082C156.673,85.823,163.66,97.2,171,106c4.163,4.994,12.351,10.911,18.7,14.9A138.637,138.637,0,0,0,212,132Z"/>
  </g>
</svg>
