<svg id="Bands" xmlns="http://www.w3.org/2000/svg" width="256" height="256" viewBox="0 0 256 256">
  <defs>
    <style>
      .cls-1 {
        fill: #fff;
      }

      .cls-2 {
        fill: #036;
      }

      .cls-2, .cls-3, .cls-4, .cls-5, .cls-6 {
        fill-rule: evenodd;
      }

      .cls-3 {
        fill: #636363;
      }

      .cls-4 {
        fill: #ffb433;
      }

      .cls-6 {
        fill: #a60000;
      }
    </style>
  </defs>
  <circle id="BG" class="cls-1" cx="128" cy="128" r="105.281"/>
  <path id="OuterBand" class="cls-2" d="M128,19.46A108.54,108.54,0,1,1,19.46,128,108.54,108.54,0,0,1,128,19.46Zm0,5.427A103.113,103.113,0,1,1,24.887,128,103.113,103.113,0,0,1,128,24.887Z"/>
  <g id="Group_14_copy_2" data-name="Group 14 copy 2">
    <path id="House_copy_5" data-name="House copy 5" class="cls-3" d="M69,172H45.216A93.617,93.617,0,0,1,58.392,65.243C74.919,83.462,89,99,89,99v4l-20,.029V172Z"/>
    <path id="Boxes_copy_6" data-name="Boxes copy 6" class="cls-4" d="M216,119v40.548a93.114,93.114,0,0,1-4.96,11.366A7.572,7.572,0,0,1,210,171H164a5.609,5.609,0,0,1-6-6V119c0-3.658,2.342-7,6-7h46C213.658,112,216,115.342,216,119Z"/>
    <path id="Boxes_copy_7" data-name="Boxes copy 7" class="cls-5" d="M217,117v40c-0.524,1.465-1.4,2.286-2,4-0.047.134,0-41.75,0-44a4.3,4.3,0,0,0-4-4H163a4.236,4.236,0,0,0-4,4v49a4.36,4.36,0,0,0,4,4c2.583,0,45.833.061,49,0-0.336.045-.637,2-1,2H163a5.609,5.609,0,0,1-6-6V117a5.609,5.609,0,0,1,6-6h48A5.609,5.609,0,0,1,217,117Z"/>
    <path id="fire_copy_12" data-name="fire copy 12" class="cls-6" d="M187.649,119.208c3.281,2.973,6.306,6.6,5.729,11.458-1.117,9.4,1.918,12.971,3.1,14.3,8.517,9.6,2.89-19.385,8.359-7.14,1.068,2.39,3.176,5.413,3.19,10.635,0.028,10.709-1.437,17.165-11.783,19.442-1.316-12.388-5.029-7.716-8.594-17.187-8.181-21.731-3.2,10.8-8.593,17.187a21.162,21.162,0,0,1-6.19-2.282c-3.754-2.11-6.033-4.837-6.7-6.312-1.6-3.536.955-8.5,0-11.458-1.074-3.325-.527-5.885.048-6.1,0.722-.269,2.376,1.689,5.681,7.532,2.736,4.841,1.18-11.117,7.323-14.48C191.391,128.14,173.566,106.449,187.649,119.208Z"/>
    <path id="Rectangle_641_copy_3" data-name="Rectangle 641 copy 3" class="cls-6" d="M144,159V145H133v6h-6v-6H116v6h-6v-6H99v6H93v-6H82v14H76V125h6v14H93v-6h6v6h11v-6h6v6h11v-6h6v6h11V125h6v34h-6Z"/>
  </g>
</svg>
