<svg id="Bands" xmlns="http://www.w3.org/2000/svg" width="256" height="256" viewBox="0 0 256 256">
  <defs>
    <style>
      .cls-1 {
        fill: #fff;
      }

      .cls-2 {
        fill: #036;
      }

      .cls-2, .cls-3, .cls-4, .cls-5, .cls-6, .cls-7 {
        fill-rule: evenodd;
      }

      .cls-3 {
        fill: #00ac3a;
      }

      .cls-4 {
        fill: #636363;
      }

      .cls-5 {
        fill: #ffb433;
      }

      .cls-7 {
        fill: #a60000;
        stroke: #a60000;
        stroke-width: 1px;
      }
    </style>
  </defs>
  <circle id="BG" class="cls-1" cx="128" cy="128" r="105.281"/>
  <path id="OuterBand" class="cls-2" d="M128,19.46A108.54,108.54,0,1,1,19.46,128,108.54,108.54,0,0,1,128,19.46Zm0,5.427A103.113,103.113,0,1,1,24.887,128,103.113,103.113,0,0,1,128,24.887Z"/>
  <path id="ColorBand_GREEN" data-name="ColorBand GREEN" class="cls-3" d="M128,0.14A127.86,127.86,0,1,1,.14,128,127.86,127.86,0,0,1,128,.14Zm0,19.32A108.54,108.54,0,1,1,19.46,128,108.54,108.54,0,0,1,128,19.46Z"/>
  <g id="Group_1_copy_4" data-name="Group 1 copy 4">
    <path id="House_copy_24" data-name="House copy 24" class="cls-4" d="M111,149H36.69A93.561,93.561,0,0,1,115.312,35.253C127.984,49.125,137,59,137,59v5H111v85Z"/>
    <path id="Rocks_copy_4" data-name="Rocks copy 4" class="cls-5" d="M198,182c-3.542,13.073-9.227,16.6-41,13-40.752-4.614-32.181,9.35-71,9-4.579-.041-9.216.221-13.965-0.887C53.718,189.465,41.577,172.272,37.043,149H111V117c14.083,0,50.949-1.723,61,22C177.727,152.516,203.622,161.249,198,182Z"/>
    <path id="Rocks_copy_5" data-name="Rocks copy 5" class="cls-6" d="M199,183c-3.542,13.073-10.227,16.6-42,13-40.752-4.614-32.181,9.35-71,9a64.16,64.16,0,0,1-13.965-1.887C70.6,202.046,68.368,200.146,67,199c1.5-.012,3.672.036,5,0,0.787,0.871,3.87,2.949,14,3,35.771,0.181,32.376-13.535,71-9,25.955,3.047,35.973,1.8,39-10,5.256-20.487-20.992-29.652-26-44-7.754-22.215-56-20-56-20v30H37c-0.249-1.073-.746-1.913-0.958-3H111V116c14.083,0,53.782-.723,62,22C177.992,151.805,204.622,162.249,199,183Z"/>
    <path id="fire_copy_4" data-name="fire copy 4" class="cls-7" d="M172.019,87.382c6.292,5.7,12.1,12.666,10.988,21.976C180.864,127.391,186.419,134.769,189,137c21.535,18.622,5.494-37.393,15.984-13.906,2.047,4.585,6.988,11.89,7.016,21.906,0.053,20.539-2.355,34.833-23,36-2.523-23.76-10.143-15.016-16.981-33.183-6.045-16.057-6.033-14.684-8.555-8.113a44.419,44.419,0,0,0-2.6,24.7c1.118,6.025-1.518,14.235-5.327,16.378-4.23-.853-9.213-1.322-12.873-3.378a28.582,28.582,0,0,1-11.851-13.1c-3.069-6.783,3.284-16.32,1.451-22-2.059-6.378-5.278-14.953-1.358-11.681,1.134,0.947,4.557,3.241,10.895,14.447,5.249,9.285,2.264-21.321,14.047-27.773C179.2,104.514,145.007,62.911,172.019,87.382Z"/>
  </g>
</svg>
