<svg id="Bands" xmlns="http://www.w3.org/2000/svg" width="256" height="256" viewBox="0 0 256 256">
  <defs>
    <style>
      .cls-1 {
        fill: #fff;
      }

      .cls-2 {
        fill: #036;
      }

      .cls-2, .cls-3, .cls-5, .cls-6, .cls-7, .cls-8 {
        fill-rule: evenodd;
      }

      .cls-3 {
        fill: #ffd718;
      }

      .cls-4 {
        fill: none;
      }

      .cls-5 {
        fill: #636363;
      }

      .cls-6 {
        fill: #ffb433;
      }

      .cls-8 {
        fill: #a60000;
      }
    </style>
  </defs>
  <circle id="BG" class="cls-1" cx="128" cy="128" r="105.281"/>
  <path id="OuterBand" class="cls-2" d="M128,19.46A108.54,108.54,0,1,1,19.46,128,108.54,108.54,0,0,1,128,19.46Zm0,5.427A103.113,103.113,0,1,1,24.887,128,103.113,103.113,0,0,1,128,24.887Z"/>
  <path id="ColorBand_YELLOW" data-name="ColorBand YELLOW" class="cls-3" d="M128,0.14A127.86,127.86,0,1,1,.14,128,127.86,127.86,0,0,1,128,.14Zm0,19.32A108.54,108.54,0,1,1,19.46,128,108.54,108.54,0,0,1,128,19.46Z"/>
  <circle id="Ellipse_1_copy_3" data-name="Ellipse 1 copy 3" class="cls-4" cx="127.531" cy="127.688" r="92.188"/>
  <g id="Group_3_copy" data-name="Group 3 copy">
    <path id="House_copy_4" data-name="House copy 4" class="cls-5" d="M127.53,219.875a92.182,92.182,0,0,1-92.015-86.732L39,129V102H53v10S73.027,92.183,73.683,91.528a4.941,4.941,0,0,1,6.99,0C82.551,93.4,146,163,146,163v4l-16,0v52.811C129.177,219.835,128.358,219.875,127.53,219.875Z"/>
    <path id="Tree_Tall_copy_10" data-name="Tree Tall copy 10" class="cls-6" d="M219.7,128.327A48.592,48.592,0,0,1,210,125c-11.182-4.664-12,3.074-12,13v49.1a92.7,92.7,0,0,1-18,16.374V138c-0.027-14.8-2-16.634-11-13-21.125,13.684-69.189,7.931-41-3,11.973-4.643,44-32.148,44-57-16.3,10.076-39.507,7.692-27-2a102.583,102.583,0,0,0,21.421-18.9,92.185,92.185,0,0,1,53.3,83.585C219.719,127.9,219.7,128.113,219.7,128.327Z"/>
    <path id="Tree_Tall_copy_11" data-name="Tree Tall copy 11" class="cls-7" d="M178,204.819V138c0-14.25-1.083-13.917-8-11-27.083,14.583-71.781,6.265-41-7,14.821-5.466,41-37.991,41-53-14.72,10.821-40.043,5.708-26-5a207.885,207.885,0,0,0,20.722-18.666c0.774,0.342,1.549.683,2.313,1.046A111.117,111.117,0,0,1,146,64c-10.889,7.562,10.612,8.545,25,0,0.6-.357,1.011-1.276,2-1,1.571,21.852-30.837,55.289-42.815,59.918C105.4,132.5,148.483,136.207,169,124c9-3.634,11.973-1.8,12,13v65.761C180.013,203.465,179.015,204.154,178,204.819Zm22-71.785v51.6q-1.455,1.85-3,3.621V132c0-6.258,1.78-14.087,15-7a28.584,28.584,0,0,0,7.717,2.634c0,0.018,0,.035,0,0.053,0,0.991-.044,1.972-0.075,2.955A28.828,28.828,0,0,1,212,128C201.447,122.474,200,126.9,200,133.034Z"/>
    <path id="Rectangle_34_copy_8" data-name="Rectangle 34 copy 8" class="cls-8" d="M120,44c-0.2-9.865,14.281-9.952,14,0-0.213,7.537-2.711,38.149-3,41-0.309,3.045-7.614,3.156-8,0S120.148,51.23,120,44Zm7,51a6,6,0,1,1-6,6A6.185,6.185,0,0,1,127,95Z"/>
  </g>
</svg>
