<svg id="Bands_Circle" data-name="Bands Circle" xmlns="http://www.w3.org/2000/svg" width="256" height="256" viewBox="0 0 256 256">
  <defs>
    <style>
      .cls-1 {
        fill: #fff;
      }

      .cls-2 {
        fill: #036;
      }

      .cls-2, .cls-3, .cls-4, .cls-5 {
        fill-rule: evenodd;
      }

      .cls-3 {
        fill: #bfbfbf;
      }

      .cls-4 {
        fill: #a60000;
      }
    </style>
  </defs>
  <circle id="BG" class="cls-1" cx="128" cy="128" r="105.281"/>
  <path id="OuterBand" class="cls-2" d="M128,19.46A108.54,108.54,0,1,1,19.46,128,108.54,108.54,0,0,1,128,19.46Zm0,5.427A103.113,103.113,0,1,1,24.887,128,103.113,103.113,0,0,1,128,24.887Z"/>
  <path id="ColorBand_GRAY" data-name="ColorBand GRAY" class="cls-3" d="M128,0.14A127.86,127.86,0,1,1,.14,128,127.86,127.86,0,0,1,128,.14Zm0,19.32A108.54,108.54,0,1,1,19.46,128,108.54,108.54,0,0,1,128,19.46Z"/>
  <g id="Group_5_copy_4" data-name="Group 5 copy 4">
    <g id="FireHydrant">
      <path class="cls-4" d="M204,141h-1v3a3,3,0,0,1-3,3h-8a3,3,0,0,1-3,3h-3v22a3,3,0,0,1,3,3h4a3,3,0,0,1,3,3v2a3,3,0,0,1,3,3v2a3,3,0,0,1-3,3H137a3,3,0,0,1-3-3v-2a3,3,0,0,1,3-3v-2a3,3,0,0,1,3-3h4a3,3,0,0,1,3-3V150h-3a3,3,0,0,1-3-3h-7a3,3,0,0,1-3-3v-3h-1a3,3,0,0,1-3-3v-8a3,3,0,0,1,3-3h1v-3a3,3,0,0,1,3-3h7a3,3,0,0,1,3-3h3V106h-6a3,3,0,0,1-3-3V94a3,3,0,0,1,3-3h6V81c0-4.875,5.262-12,12-12V67a3,3,0,0,1,3-3h9a3,3,0,0,1,3,3v2c6.772,0,12,7.125,12,12V91h3a3,3,0,0,1,3,3v9a3,3,0,0,1-3,3h-3v12h3a3,3,0,0,1,3,3h8a3,3,0,0,1,3,3v3h1a3,3,0,0,1,3,3v8A3,3,0,0,1,204,141Z"/>
      <path id="Rectangle_649_copy" data-name="Rectangle 649 copy" class="cls-5" d="M192,147V121h3v26h-3ZM138,96h54v3H138V96Zm3,51h-3V121h3v26Zm9.5-13A16.5,16.5,0,1,1,167,150.5,16.5,16.5,0,0,1,150.5,134Zm30.038,0A13.539,13.539,0,1,0,167,147.538,13.539,13.539,0,0,0,180.538,134ZM186,172H147v-3h39v3Z"/>
    </g>
    <path id="arrow" class="cls-5" d="M54,164V150H94V140l34,17L94,174V164H54Z"/>
  </g>
</svg>
