<svg id="Bands" xmlns="http://www.w3.org/2000/svg" width="256" height="256" viewBox="0 0 256 256">
  <defs>
    <style>
      .cls-1 {
        fill: #fff;
      }

      .cls-2 {
        fill: #036;
      }

      .cls-2, .cls-3, .cls-4 {
        fill-rule: evenodd;
      }

      .cls-3 {
        fill: #ffb433;
        stroke: #000;
        stroke-linecap: round;
        stroke-width: 4px;
        stroke-dasharray: 0.001 6;
      }
    </style>
  </defs>
  <circle id="BG" class="cls-1" cx="128" cy="128" r="105.281"/>
  <path id="OuterBand" class="cls-2" d="M128,19.46A108.54,108.54,0,1,1,19.46,128,108.54,108.54,0,0,1,128,19.46Zm0,5.427A103.113,103.113,0,1,1,24.887,128,103.113,103.113,0,0,1,128,24.887Z"/>
  <g>
    <path id="Tree_Tall_copy_7" data-name="Tree Tall copy 7" class="cls-3" d="M136,135c0,3.622-.537,49.3-0.2,51.644-57.4,25-62.337,3.247-41.749-9.588,15.7-9.789,23.215-24.4,28.788-44.488C127.708,129.8,136,122.575,136,135Zm27-1c0,3.622.357,50.3,0.019,52.644,29.987,16.289,33.6-1.672,40.267-10.315-15.7-9.788-21.733-23.674-27.307-43.761C171.112,129.8,163,121.575,163,134Z"/>
    <path id="Tree_Tall_copy_13" data-name="Tree Tall copy 13" class="cls-4" d="M198.5,70.016C197.278,73.461,184.374,72.7,165,60c1.795,25.547,29.31,57.5,38,62,13.914,7.207-20.108,11.958-35,2-7.327-5.255-9.145.7-9,14,0.179,16.475.059,61.819,0.015,76.408A91.55,91.55,0,0,1,141.59,219H140s-0.311-63.1,0-81c-0.805-13.622.573-18.831-7-14-17.317,9.3-46.306,6.409-33-2,8.849-5.593,35-38,35-61-26,16.427-36.572,11.753-26,4,10.386-7.617,18.5-18.26,24.668-28.911a91.7,91.7,0,0,1,50.046,19.383,83.526,83.526,0,0,0,8.387,7.415A92.763,92.763,0,0,1,198.5,70.016Z"/>
    <path id="saw_copy" data-name="saw copy" class="cls-4" d="M130,179l-7,3-1-7-7,4-2.56-7.479L106,175l-0.967-6.464L98,172l-1.127-6.753L90,169l-1-7-7,4-1-8-7,5-1.779-7.687L65,160l-1-8,15-23,59,39ZM61,152l-10,4s-9.232-3.824-12-6a5.788,5.788,0,0,1-.889-0.89c-0.624-2.661-1.139-5.362-1.526-8.105A6.3,6.3,0,0,1,37,140c2.764-5.007,11.985-17.175,15-21,2.758-3.5,8.494-2.506,9-2,1.75,1.75,16,11,16,11Zm-3-27L45,143l8,5,12-18Z"/>
  </g>
</svg>
