<svg id="Bands_Circle" data-name="Bands Circle" xmlns="http://www.w3.org/2000/svg" width="256" height="256" viewBox="0 0 256 256">
  <defs>
    <style>
      .cls-1 {
        fill: #fff;
      }

      .cls-2 {
        fill: #036;
      }

      .cls-2, .cls-3, .cls-5, .cls-6, .cls-7 {
        fill-rule: evenodd;
      }

      .cls-3 {
        fill: #ff181e;
      }

      .cls-4 {
        fill: #919191;
      }

      .cls-5 {
        fill: #636363;
      }

      .cls-6 {
        fill: #ffb433;
        stroke: #000;
        stroke-width: 2px;
      }
    </style>
  </defs>
  <circle id="BG" class="cls-1" cx="128" cy="128" r="105.281"/>
  <path id="OuterBand" class="cls-2" d="M128,19.46A108.54,108.54,0,1,1,19.46,128,108.54,108.54,0,0,1,128,19.46Zm0,5.427A103.113,103.113,0,1,1,24.887,128,103.113,103.113,0,0,1,128,24.887Z"/>
  <path id="ColorBand_RED" data-name="ColorBand RED" class="cls-3" d="M128,0.14A127.86,127.86,0,1,1,.14,128,127.86,127.86,0,0,1,128,.14Zm0,19.32A108.54,108.54,0,1,1,19.46,128,108.54,108.54,0,0,1,128,19.46Z"/>
  <g id="Group_5_copy_2" data-name="Group 5 copy 2">
    <rect class="cls-4" x="95" y="64" width="66" height="38"/>
    <path id="House_copy_12" data-name="House copy 12" class="cls-5" d="M89,66c-3.38,0-4.111-1.173,0-4,12.636-8.689,34.482-23.866,37-25,2.1-.944,2.787-1.3,5,0,2.577,1.51,25.258,17.669,36,25,3.59,2.45,3.631,4,0,4h-4v40H93V66C93.01,66,90.252,66,89,66Zm10,1h59v8H99V67Zm0,26h59v8H99V93Zm0-13h59v8H99V80Z"/>
    <path id="Driveway" class="cls-6" d="M176,185H81c-10.71,0-10.393-4.128-8-10,0.849-2.084,24-63.664,25-65s1.485-2,4-2h52c2.515,0,3,.664,4,2s25.18,62.9,26,65C186.226,180.7,186.71,185,176,185Z"/>
    <path class="cls-7" d="M171,142H129v43h-2V142H85v-2h42V108h2v32h42v2Z"/>
    <path id="arrow" class="cls-7" d="M185,201l-21,12v-7H92v7L71,201l21-12v7h72v-7Z"/>
    <path id="arrow_copy" data-name="arrow copy" class="cls-7" d="M61,165h7L56,186,44,165h7V127H44l12-21,12,21H61v38Z"/>
  </g>
</svg>
