<svg id="Bands" xmlns="http://www.w3.org/2000/svg" width="256" height="256" viewBox="0 0 256 256">
  <defs>
    <style>
      .cls-1 {
        fill: #fff;
      }

      .cls-2 {
        fill: #036;
      }

      .cls-2, .cls-3, .cls-4, .cls-5 {
        fill-rule: evenodd;
      }

      .cls-3 {
        fill: #ffd718;
      }

      .cls-4 {
        fill: #636363;
      }

      .cls-5 {
        fill: #ffb433;
        stroke: #000;
        stroke-width: 2px;
      }
    </style>
  </defs>
  <circle id="BG" class="cls-1" cx="128" cy="128" r="105.281"/>
  <path id="OuterBand" class="cls-2" d="M128,19.46A108.54,108.54,0,1,1,19.46,128,108.54,108.54,0,0,1,128,19.46Zm0,5.427A103.113,103.113,0,1,1,24.887,128,103.113,103.113,0,0,1,128,24.887Z"/>
  <path id="ColorBand_YELLOW" data-name="ColorBand YELLOW" class="cls-3" d="M128,0.14A127.86,127.86,0,1,1,.14,128,127.86,127.86,0,0,1,128,.14Zm0,19.32A108.54,108.54,0,1,1,19.46,128,108.54,108.54,0,0,1,128,19.46Z"/>
  <g id="Group_1_copy_8" data-name="Group 1 copy 8">
    <g id="Group_28_copy" data-name="Group 28 copy">
      <path id="House_copy_14" data-name="House copy 14" class="cls-4" d="M106,69h34s0.028-3.513,0-6c-5.629-6.323-14.036-15.632-23.932-26.531A92.206,92.206,0,0,0,45.154,168L106,168V69Z"/>
      <path id="Deck_copy" data-name="Deck copy" class="cls-4" d="M119,115v42H105l0.051,10.984h105.96L211,157V108H104v7h15Zm71,0h13v42H190V115Zm-21,0h13v42H169V115Zm-21,0h13v42H148V115Zm-8,42H127V115h13v42Z"/>
    </g>
    <path id="Rectangle_1081_copy_7" data-name="Rectangle 1081 copy 7" class="cls-5" d="M54,181V171H202v10H54Zm132-30,10-8,4,4-7,8a15.953,15.953,0,0,1,5,11H134a32.907,32.907,0,0,1,4-10c1.839-2.733,7.855-5.3,10-6l-8-11,2-6,14,13,0.507,0.021c0.281-.042,1.192.01,1.493-0.021l2-13,4,1-1,12a23,23,0,0,1,5,2l19-32,4,3-6,17,11-3,2,4-15,6-2,7C182.15,150.153,185.323,150.8,186,151Zm-63,15h-8a13.128,13.128,0,0,1-9-3c-4.173-3.215-10.522-8.265-11-15-1-4.389,6.244,1.037,7,1,5.411-.264-6.652-6.991-7-12a15.051,15.051,0,0,1,4-11c1.4,1.975,4.062,7.245,5,7,2.275-.595.561-6.321,3-11,2.173-4.171,2.649-8.694,16-11,0.636,3.625,2.681,5.994,3,9,0.479,4.508-4.139,9.422-3,11,1.153,1.594,5.515-4.875,6-4,2.214,3.994,3.583,6.152,2,12-0.755,2.788-3.152,6.959-4,9-1.951,4.7,8.225-4.43,8,1C134.712,155.969,130.547,166,123,166Zm-53,0L55,151l4-4,20,13-5-12-16-8,2-4,11,4-9-14,1-8,15,19,2-14,4,1,2,22,16,20H70Z"/>
  </g>
</svg>
