<svg id="Bands" xmlns="http://www.w3.org/2000/svg" width="256" height="256" viewBox="0 0 256 256">
  <defs>
    <style>
      .cls-1 {
        fill: #fff;
      }

      .cls-2 {
        fill: #036;
      }

      .cls-2, .cls-3, .cls-4, .cls-5, .cls-6, .cls-7 {
        fill-rule: evenodd;
      }

      .cls-3 {
        fill: #ff181e;
      }

      .cls-4 {
        fill: #636363;
      }

      .cls-5 {
        fill: #ffb433;
        stroke: #000;
        stroke-width: 3px;
      }

      .cls-7 {
        fill: #a60000;
        stroke: #a60000;
        stroke-width: 1px;
      }
    </style>
  </defs>
  <circle id="BG" class="cls-1" cx="128" cy="128" r="105.281"/>
  <path id="OuterBand" class="cls-2" d="M128,19.46A108.54,108.54,0,1,1,19.46,128,108.54,108.54,0,0,1,128,19.46Zm0,5.427A103.113,103.113,0,1,1,24.887,128,103.113,103.113,0,0,1,128,24.887Z"/>
  <path id="ColorBand_RED" data-name="ColorBand RED" class="cls-3" d="M128,0.14A127.86,127.86,0,1,1,.14,128,127.86,127.86,0,0,1,128,.14Zm0,19.32A108.54,108.54,0,1,1,19.46,128,108.54,108.54,0,0,1,128,19.46Z"/>
  <g id="Group_4_copy" data-name="Group 4 copy">
    <path id="Rectangle_6_copy_3" data-name="Rectangle 6 copy 3" class="cls-4" d="M88,194H63.686a92.116,92.116,0,0,1,3.8-135.678C91.145,84.59,114,110,114,110v4H88v80Z"/>
    <g>
      <path id="Tree_Small_copy_7" data-name="Tree Small copy 7" class="cls-5" d="M102.532,128.722c4.456-3.939,9.448-2.324,11.5-3.1,1.53-.577,2.715-5.214,10.456-5.165,6.4,0.041,6.712,4.428,8.364,5.165,2.152,0.961,8.1-.63,11.5,4.132,2,2.81,1.3,8.238,2.338,9.22,0.907,0.856,6.2,3.9,4.98,11.441-1.131,7-4.137,6.178-5.227,7.231-1.117,1.079-1.347,6.595-6.273,8.265a14.568,14.568,0,0,1-12.547-1.033c-2.476-1.469-4.844-2.3-7.319-1.033-4.282,2.189-8.369,4.851-13.591,2.066-2.482-1.324-6.293-4.576-6.274-7.232,0.014-1.866-5.184-1.573-5.227-11.363-0.025-5.547,4.813-6.959,5.227-8.264C100.888,137.647,98.513,132.276,102.532,128.722Zm12.27,28.986,1.72-1.543,6.247,6.8-1.721,1.543Zm16.246,1.163,1.012,1.013-6.3,6.191-1.162-1.148Z"/>
      <path id="Rectangle_951_copy" data-name="Rectangle 951 copy" class="cls-6" d="M120,163h7v31h-7V163Zm1-13h5v15h-5V150Z"/>
    </g>
    <path id="fire_copy_14" data-name="fire copy 14" class="cls-7" d="M177.52,138.576c3.685,3.341,7.084,7.419,6.436,12.873-1.256,10.562,2.154,14.573,3.481,16.067,9.568,10.781,3.247-21.779,9.391-8.022,1.2,2.686,1.593,7,1.609,12.872,0.031,12.031.361,18.36-11.263,20.918-1.478-13.917-5.649-8.668-9.654-19.309-9.191-24.413-3.595,12.136-9.655,19.309a23.743,23.743,0,0,1-6.953-2.564c-4.219-2.37-6.778-5.433-7.528-7.09-1.8-3.973,1.074-9.548,0-12.873-1.206-3.736-.592-6.612.055-6.853,0.81-.3,2.669,1.9,6.381,8.462,3.075,5.439,1.326-12.488,8.228-16.267C181.723,148.611,161.7,124.243,177.52,138.576Z"/>
    <path id="arrow_copy_10" data-name="arrow copy 10" class="cls-6" d="M195,131l5-12a130.4,130.4,0,0,1-20.667-10.668C174.319,105.085,167.6,100.082,164,96c-7.268-8.248-10.152-12.325-15.152-22.325C153.514,71.675,159,70,159,70L132,49l-5.023,33.071s5.363-2.415,9.863-4.082C139.673,84.823,146.66,96.2,154,105c4.163,4.994,12.351,10.911,18.7,14.9A138.637,138.637,0,0,0,195,131Z"/>
  </g>
</svg>
