<svg id="Bands" xmlns="http://www.w3.org/2000/svg" width="256" height="256" viewBox="0 0 256 256">
  <defs>
    <style>
      .cls-1 {
        fill: #fff;
      }

      .cls-2 {
        fill: #036;
      }

      .cls-2, .cls-3, .cls-4, .cls-5, .cls-6, .cls-7 {
        fill-rule: evenodd;
      }

      .cls-3 {
        fill: #bfbfbf;
      }

      .cls-4 {
        fill: #a60000;
        stroke: #a60000;
        stroke-width: 1px;
      }

      .cls-5 {
        fill: #636363;
      }

      .cls-6 {
        fill: #ffb433;
        stroke: #000;
        stroke-width: 3px;
      }
    </style>
  </defs>
  <circle id="BG" class="cls-1" cx="128" cy="128" r="105.281"/>
  <path id="OuterBand" class="cls-2" d="M128,19.46A108.54,108.54,0,1,1,19.46,128,108.54,108.54,0,0,1,128,19.46Zm0,5.427A103.113,103.113,0,1,1,24.887,128,103.113,103.113,0,0,1,128,24.887Z"/>
  <path id="ColorBand_GRAY" data-name="ColorBand GRAY" class="cls-3" d="M128,0.14A127.86,127.86,0,1,1,.14,128,127.86,127.86,0,0,1,128,.14Zm0,19.32A108.54,108.54,0,1,1,19.46,128,108.54,108.54,0,0,1,128,19.46Z"/>
  <g id="Group_8_copy_14" data-name="Group 8 copy 14">
    <path id="fire_copy_10" data-name="fire copy 10" class="cls-4" d="M178.259,147.239c3.16,2.864,6.073,6.36,5.518,11.035-1.077,9.055,1.846,12.493,2.984,13.774,8.2,9.241,2.783-18.67,8.05-6.877A26.061,26.061,0,0,1,197,176c0.027,10.313-2.2,19.14-11,19-1.267-11.931-4.308-8.293-7.741-17.415C170.38,156.657,175.2,188.851,170,195c-2.124-.428-5.162-0.968-7-2-3.616-2.032-4.788-5.718-5.431-7.139-1.541-3.406.92-8.185,0-11.035-1.034-3.2-.508-5.668.047-5.874,0.695-.259,2.288,1.627,5.47,7.254,2.636,4.662,1.137-10.706,7.053-13.946C181.863,155.841,164.7,134.952,178.259,147.239Z"/>
    <path id="House_copy_33" data-name="House copy 33" class="cls-5" d="M191.106,195A92.179,92.179,0,1,1,87.235,45.174L116,76v4H79v27h72v36h-4v52h44.106ZM79,195h62V143H79v52Zm8-85H79v25h8V110Zm12,0H91v25h8V110Zm12,0h-8v25h8V110Zm12,0h-8v25h8V110Zm12,0h-8v25h8V110Zm12,0h-8v25h8V110Z"/>
    <path id="Tree_Small_copy" data-name="Tree Small copy" class="cls-6" d="M97.8,152.268c3.211-2.839,6.808-1.675,8.287-2.233,1.1-.416,1.956-3.758,7.533-3.722,4.614,0.029,4.837,3.19,6.027,3.722,1.551,0.692,5.839-.454,8.286,2.977,1.445,2.025.935,5.936,1.685,6.643,0.654,0.616,4.467,2.808,3.589,8.243-0.816,5.042-2.982,4.452-3.767,5.211-0.8.777-.971,4.751-4.52,5.954a10.5,10.5,0,0,1-9.04-.744c-1.784-1.059-3.49-1.656-5.273-.745-3.085,1.578-6.031,3.5-9.793,1.489-1.788-.954-4.535-3.3-4.52-5.21,0.01-1.345-3.736-1.134-3.767-8.188-0.018-4,3.468-5.014,3.767-5.954C96.619,158.7,94.909,154.828,97.8,152.268ZM106.75,173.4l1.026-1.026,5.13,5.13-1.026,1.026Zm11.287,0,1.026,1.026-5.131,5.13-1.026-1.026Z"/>
    <path class="cls-7" d="M111,176h5v19h-5V176Zm1-9h3v11h-3V167Z"/>
    <path id="arrow_copy_7" data-name="arrow copy 7" class="cls-7" d="M207,128l5-12a130.4,130.4,0,0,1-20.667-10.668C186.319,102.085,179.6,97.082,176,93c-7.268-8.248-10.152-12.325-15.152-22.325C165.514,68.675,171,67,171,67L144,46l-5.023,33.071s5.363-2.415,9.863-4.082C151.673,81.823,158.66,93.2,166,102c4.163,4.994,12.351,10.911,18.7,14.9A138.637,138.637,0,0,0,207,128Z"/>
  </g>
</svg>
