<svg id="Bands" xmlns="http://www.w3.org/2000/svg" width="256" height="256" viewBox="0 0 256 256">
  <defs>
    <style>
      .cls-1 {
        fill: #fff;
      }

      .cls-2 {
        fill: #036;
      }

      .cls-2, .cls-3 {
        fill-rule: evenodd;
      }

      .cls-3 {
        fill: #ffb433;
        stroke: #000;
        stroke-width: 2px;
      }
    </style>
  </defs>
  <circle id="BG" class="cls-1" cx="128" cy="128" r="105.281"/>
  <path id="OuterBand" class="cls-2" d="M128,19.46A108.54,108.54,0,1,1,19.46,128,108.54,108.54,0,0,1,128,19.46Zm0,5.427A103.113,103.113,0,1,1,24.887,128,103.113,103.113,0,0,1,128,24.887Z"/>
  <g id="Group_1_copy_6" data-name="Group 1 copy 6">
    <path id="debris_copy_2" data-name="debris copy 2" class="cls-3" d="M200.08,78.861L204,82l-6,22,13-3,2,4-18,8a42.519,42.519,0,0,0-3,7c-0.093-.013,4.375,1.534,6,2,5.324-4.437,12-9,12-9l4,4-7.723,9.755A17.954,17.954,0,0,1,213,139H136a19.944,19.944,0,0,1,3-11c2.575-3.828,8.85-7.377,12-8l-8-13,2-7,16,16c0.7-.154,3.177.086,4,0l3-15,5,1-2,14c2.025,0.372,5.795,1.278,7,2ZM72,88l4,2,2,26,20,23H58L42,122l4-6,25,16-6.571-13.722L45,108l2-3,14,5L50,91l1-9,18,22Zm143,68H41V144H215v12ZM130,90c2.725,4.983,4.687,7.078,2.739,14.374-0.93,3.478-3.695,7.08-4.739,9.626-2.4,5.86,9.276-4.774,9,2-0.355,8.694-4.07,20.442-13,23H111c-4.695,0-8.956-2.891-13-6-5.012-3.853-7.227-9.6-9-16-1.2-5.267,7.069.046,8,0,6.661-.329-8.572-8.751-9-15-0.308-4.5,2.422-9.184,6-13,1.727,2.465,4.846,8.306,6,8,2.8-.742-1.506-7.459,2-13,3.291-5.2,4.566-9.123,21-12,0.783,4.523,2.607,5.249,3,9,0.589,5.624-5.4,13.032-4,15C123.419,97.988,129.4,88.909,130,90Z"/>
  </g>
</svg>
