<svg id="Bands" xmlns="http://www.w3.org/2000/svg" width="256" height="256" viewBox="0 0 256 256">
  <defs>
    <style>
      .cls-1 {
        fill: #fff;
      }

      .cls-2 {
        fill: #036;
      }

      .cls-2, .cls-3, .cls-4, .cls-5, .cls-6 {
        fill-rule: evenodd;
      }

      .cls-3 {
        fill: #bfbfbf;
      }

      .cls-5 {
        fill: #ffb433;
        stroke: #000;
        stroke-width: 3px;
      }

      .cls-6 {
        fill: #a60000;
        stroke: #a60000;
        stroke-width: 1px;
      }
    </style>
  </defs>
  <circle id="BG" class="cls-1" cx="128" cy="128" r="105.281"/>
  <path id="OuterBand" class="cls-2" d="M128,19.46A108.54,108.54,0,1,1,19.46,128,108.54,108.54,0,0,1,128,19.46Zm0,5.427A103.113,103.113,0,1,1,24.887,128,103.113,103.113,0,0,1,128,24.887Z"/>
  <path id="ColorBand_GRAY" data-name="ColorBand GRAY" class="cls-3" d="M128,0.14A127.86,127.86,0,1,1,.14,128,127.86,127.86,0,0,1,128,.14Zm0,19.32A108.54,108.54,0,1,1,19.46,128,108.54,108.54,0,0,1,128,19.46Z"/>
  <g id="Group_2_copy_18" data-name="Group 2 copy 18">
    <path id="Tree_Tall_copy_12" data-name="Tree Tall copy 12" class="cls-4" d="M216.919,111.958C205.425,109.932,206,116.264,206,127v49.9a92.637,92.637,0,0,1-18,20.9V127c0.2-15.754-1.01-18.973-9.714-15.042-19.119,10.865-50.025,7.326-35.661-2.972,10.456-7.5,38.633-26.612,38.633-53.492-28.707,19.2-40.817,15.7-29.718,5.944a119.21,119.21,0,0,0,15.653-16.946,92.284,92.284,0,0,1,51.764,68.866A24.186,24.186,0,0,1,216.919,111.958Z"/>
    <path id="Tree_Small" data-name="Tree Small" class="cls-5" d="M126.111,137.372c4.751-4.2,10.074-2.479,12.264-3.305,1.631-.616,2.894-5.561,11.148-5.508,6.829,0.044,7.159,4.722,8.92,5.508,2.295,1.025,8.641-.672,12.263,4.406,2.138,3,1.384,8.785,2.494,9.832,0.967,0.912,6.611,4.156,5.31,12.2-1.206,7.462-4.412,6.588-5.574,7.711-1.191,1.15-1.436,7.033-6.689,8.813a15.532,15.532,0,0,1-13.379-1.1c-2.64-1.566-5.165-2.451-7.8-1.1-4.566,2.335-8.925,5.173-14.494,2.2-2.646-1.412-6.71-4.879-6.689-7.711,0.015-1.99-5.528-1.678-5.574-12.117-0.026-5.916,5.132-7.421,5.574-8.813C124.357,146.889,121.825,141.161,126.111,137.372Zm13.083,30.908,1.835-1.646,6.661,7.25-1.835,1.646Zm17.324,1.24,1.08,1.08-6.724,6.6-1.238-1.224Z"/>
    <path class="cls-4" d="M145,174h7v33h-7V174Zm1-13h5v15h-5V161Z"/>
    <path id="fire_copy" data-name="fire copy" class="cls-6" d="M94.52,151.576c3.686,3.341,7.084,7.419,6.436,12.873-1.256,10.562,2.154,14.573,3.481,16.067,9.568,10.781,3.247-21.779,9.391-8.022,1.2,2.686,1.593,7,1.609,12.872,0.031,12.031.361,18.36-11.263,20.918-1.478-13.917-5.649-8.668-9.654-19.309-9.191-24.413-3.594,12.136-9.654,19.309a23.738,23.738,0,0,1-6.953-2.564c-4.219-2.37-6.778-5.433-7.528-7.09-1.8-3.973,1.074-9.548,0-12.873-1.206-3.736-.592-6.612.055-6.853,0.811-.3,2.669,1.9,6.382,8.462,3.074,5.439,1.326-12.488,8.227-16.267C98.723,161.611,78.7,137.243,94.52,151.576Z"/>
    <path id="arrow_copy_9" data-name="arrow copy 9" class="cls-4" d="M53.758,137.76l-5.4-12.96a140.82,140.82,0,0,0,22.321-11.522c5.415-3.506,12.675-8.91,16.559-13.318C95.087,91.053,98.2,86.65,103.6,75.85c-5.04-2.16-10.965-3.969-10.965-3.969L121.8,49.2l5.424,35.717s-5.792-2.608-10.652-4.408c-3.06,7.38-10.6,19.662-18.532,29.171-4.5,5.393-13.339,11.784-20.2,16.09A149.716,149.716,0,0,1,53.758,137.76Z"/>
  </g>
</svg>
