<svg id="Bands_Circle" data-name="Bands Circle" xmlns="http://www.w3.org/2000/svg" width="256" height="256" viewBox="0 0 256 256">
  <defs>
    <style>
      .cls-1 {
        fill: #fff;
      }

      .cls-2 {
        fill: #036;
      }

      .cls-2, .cls-3, .cls-4 {
        fill-rule: evenodd;
      }

      .cls-4 {
        fill: #d20000;
      }
    </style>
  </defs>
  <circle id="BG" class="cls-1" cx="128" cy="128" r="105.281"/>
  <path id="OuterBand" class="cls-2" d="M128,19.46A108.54,108.54,0,1,1,19.46,128,108.54,108.54,0,0,1,128,19.46Zm0,5.427A103.113,103.113,0,1,1,24.887,128,103.113,103.113,0,0,1,128,24.887Z"/>
  <g>
    <path id="OuterBand-2" data-name="OuterBand" class="cls-2" d="M128,19.46A108.54,108.54,0,1,1,19.46,128,108.54,108.54,0,0,1,128,19.46Zm0,5.427A103.113,103.113,0,1,1,24.887,128,103.113,103.113,0,0,1,128,24.887Z"/>
    <g>
      <circle id="Ellipse_3_copy_2" data-name="Ellipse 3 copy 2" class="cls-1" cx="128" cy="128" r="93"/>
      <path id="arrow" class="cls-3" d="M155,189V105c0-12.882-14.118-25-27-25s-25,12.118-25,25v34.315c5.616-1.662,10.869-4,14.465-5.2,3.54-1.18,10.227,1.573,4.72,9.44s-20.8,31.674-28.32,42.48c-1.96,2.818-3.321,3.611-5.9,0s-24.78-35.793-29.5-42.48-0.983-10.62,3.54-9.44c2.879,0.751,9.655,3.34,16.995,5.17V104c0-26.99,21.915-50,49-50,27.038,0,51,23.068,51,50v85H155Z"/>
      <path id="Ellipse_3_copy" data-name="Ellipse 3 copy" class="cls-4" d="M128,221a93,93,0,1,1,93-93A93,93,0,0,1,128,221Zm0-13.95a78.671,78.671,0,0,0,46.578-15.193L64.144,81.422A79.036,79.036,0,0,0,128,207.05Zm0-158.1A78.762,78.762,0,0,0,73.27,70.991l111.739,111.74A79.028,79.028,0,0,0,128,48.95Z"/>
    </g>
  </g>
</svg>
