<svg id="Bands_Diamond" data-name="Bands Diamond" xmlns="http://www.w3.org/2000/svg" width="256" height="256" viewBox="0 0 256 256">
  <defs>
    <style>
      .cls-1, .cls-4 {
        fill: #fff;
      }

      .cls-1, .cls-2, .cls-3, .cls-4, .cls-5 {
        fill-rule: evenodd;
      }

      .cls-2 {
        fill: #036;
      }

      .cls-3 {
        fill: #ff181e;
      }

      .cls-4 {
        stroke: #000;
        stroke-width: 2px;
      }
    </style>
  </defs>
  <path id="BG" class="cls-1" d="M128,23L233,128,128,234,23,128Z"/>
  <path id="OuterBand" class="cls-2" d="M128,19.46L236.54,128,128,236.54,19.46,128Zm0,5.427L231.113,128,128,231.113,24.887,128Z"/>
  <path id="ColorBand_RED" data-name="ColorBand RED" class="cls-3" d="M128,0.14L255.86,128,128,255.86,0.14,128Zm0,19.32L236.54,128,128,236.54,19.46,128Z"/>
  <g>
    <path class="cls-4" d="M155.26,121.672c-2.048,1.2-2.6,1.912-2.82,3.732-0.433,3.59-.771,7.142,2.76,9.524C157.113,136.219,158,140,158,140l10,5-9,12-10-6s-3.418-.4-5.02.53a9.92,9.92,0,0,0-4.98,7.221l-11,.243-11-.243a9.92,9.92,0,0,0-4.98-7.221C110.418,150.6,107,151,107,151l-10,6-9-12,10-5s0.887-3.781,2.8-5.072c3.531-2.382,3.193-5.934,2.76-9.524-0.22-1.82-.772-2.537-2.82-3.732-6.815-3.978-10.34-8.636-10.34-13.063,0-4.615.038-9.97,0-14.929-0.033-4.305,3.551-6.12,6.58-9.331,3.326-3.525,4.786-10.974,14.1-14.929,4.3-1.825,9.243-4.616,10.34-6.531C122.6,60.827,122.238,58,125,58h6c2.762,0,2.4,2.827,3.58,4.889,1.1,1.915,6.042,4.706,10.34,6.531,9.314,3.955,10.774,11.4,14.1,14.929,3.029,3.211,6.613,5.025,6.58,9.331-0.038,4.959,0,10.314,0,14.929C165.6,113.036,162.075,117.694,155.26,121.672Z"/>
    <path id="Rectangle_38_copy" data-name="Rectangle 38 copy" class="cls-5" d="M168,109c0,4.744-3.75,9.737-11,14-2.178,1.281-2.766,2.049-3,4-0.461,3.847.244,4.447,4,7,2.035,1.383,4.524,2.757,3,5-3.924,5.777-7.917,11.757-10,15-1.065,1.658-4.3,0-6,1-2.326,1.364-3.549,4.255-4,8H115c-0.451-3.745-1.674-6.636-4-8-1.7-1-4.935.658-6-1-2.083-3.243-6.076-9.223-10-15-1.524-2.243.965-3.617,3-5,3.756-2.553,4.461-3.153,4-7-0.234-1.951-.822-2.719-3-4-7.25-4.263-11-9.256-11-14,0-4.946.04-10.685,0-16-0.035-4.614,3.778-6.559,7-10,3.538-3.778,5.091-11.761,15-16,4.573-1.956,9.833-4.947,11-7,1.257-2.209.062-5,3-5h8c2.938,0,1.743,2.791,3,5,1.167,2.053,6.427,5.044,11,7,9.909,4.239,11.462,12.222,15,16,3.222,3.441,7.035,5.386,7,10C167.96,98.315,168,104.054,168,109ZM70.032,144.557l12.287-8.6a3,3,0,0,1,4.178.737l17.208,25.575a3,3,0,0,1-.737,4.178l-12.287,8.6a3,3,0,0,1-4.178-.737L69.3,148.735A3,3,0,0,1,70.032,144.557ZM128,153a17,17,0,1,1,17-17A17,17,0,0,1,128,153Zm0-8a9,9,0,1,1,9-9A8.876,8.876,0,0,1,128,145ZM103,89c4.329,0,14.7-1.581,18,2,4.088,4.433,2.571,9.648,1,13-3.165,6.751-8.6,12-15.5,12S94,112.456,94,105c0-3.213-.164-4.868,0-8C94.231,92.6,99.072,89,103,89Zm82.968,55.557-12.287-8.6a3,3,0,0,0-4.178.737l-17.208,25.575a3,3,0,0,0,.737,4.178l12.287,8.6a3,3,0,0,0,4.178-.737l17.208-25.575A3,3,0,0,0,185.968,144.557ZM153,89c-4.329,0-14.7-1.581-18,2-4.088,4.433-2.571,9.648-1,13,3.165,6.751,8.6,12,15.5,12s12.5-3.544,12.5-11c0-3.213.164-4.868,0-8C161.77,92.6,156.928,89,153,89Z"/>
  </g>
</svg>
