<svg id="Bands_Diamond" data-name="Bands Diamond" xmlns="http://www.w3.org/2000/svg" width="256" height="256" viewBox="0 0 256 256">
  <defs>
    <style>
      .cls-1, .cls-4 {
        fill: #fff;
      }

      .cls-1, .cls-2, .cls-3, .cls-5, .cls-6, .cls-7 {
        fill-rule: evenodd;
      }

      .cls-2 {
        fill: #036;
      }

      .cls-3 {
        fill: #bfbfbf;
      }

      .cls-5 {
        fill: #ffb433;
      }

      .cls-7 {
        fill: #a60000;
      }
    </style>
  </defs>
  <path id="BG" class="cls-1" d="M128,23L233,128,128,234,23,128Z"/>
  <path id="OuterBand" class="cls-2" d="M128,19.46L236.54,128,128,236.54,19.46,128Zm0,5.427L231.113,128,128,231.113,24.887,128Z"/>
  <path id="ColorBand_GRAY" data-name="ColorBand GRAY" class="cls-3" d="M128,0.14L255.86,128,128,255.86,0.14,128Zm0,19.32L236.54,128,128,236.54,19.46,128Z"/>
  <g id="Group_11_copy_2" data-name="Group 11 copy 2">
    <rect class="cls-4" x="95" y="92" width="51" height="72"/>
    <path class="cls-5" d="M75,167.172V88.636L75.636,88H180.205l39.905,39.9-40.1,40.1H75.828ZM143,162V94H100v68h43Z"/>
    <path id="person" class="cls-6" d="M137.31,124.365a56.6,56.6,0,0,1-9.9,4.455c-1.666.524-2.908,0.124-3.96-1.98-0.845-1.689-1.423-2.784-1.98-3.96S120.6,118.611,119,121.4s-3.712,6.621-4.95,9.405c-0.789,1.776-.8,2.042.5,2.97a45.44,45.44,0,0,1,3.96,2.97c2.042,1.671,3.032,3.032,2.475,6.435s-2.413,9.281-3.96,14.355c-0.817,2.682-2.006,5.189-3.96,4.455a18.179,18.179,0,0,1-3.465-1.485c-0.928-.619-0.99-1.423,0-4.455s2.661-8.167,3.465-10.89,0.866-2.784-.5-3.96-3.094-2.413-4.455-3.465-2.66-2.1-2.475.99-0.426,6.954-3.465,11.88c-2.2,3.56-6.62,7.92-7.92,9.405s-2.661,2.289-3.96,1.485c-1.651-1.022-2.413-1.176-2.97-2.475-0.4-.933-0.681-2.289.99-3.96s7.5-6.592,9.405-12.87c1.55-5.1.725-8.2,1.485-13.365,0.454-3.087,2.249-6.063,4.455-9.9,0.86-1.5,2.113-3.681-1.98-.99-3.1,2.037-4.455,6-6.435,7.92s-2.723,2.063-4.455.99-2.326-2.639-.99-4.455a90.885,90.885,0,0,1,6.93-8.91c2.329-2.361,11.3-5.445,19.8-2.475s9.529,6.188,10.4,8.415,0.186,2.846,2.475,1.98,4.022-1.732,5.94-2.475a2.459,2.459,0,0,1,3.465,1.485C139.29,121.581,139.847,122.756,137.31,124.365Zm-16.582-14.85a7.177,7.177,0,1,1,7.177-7.177A7.178,7.178,0,0,1,120.728,109.515Z"/>
    <path id="Rectangle_34_copy_11" data-name="Rectangle 34 copy 11" class="cls-7" d="M163,100c-0.2-9.865,14.281-9.952,14,0-0.213,7.537-2.711,38.149-3,41-0.309,3.045-7.614,3.156-8,0S163.148,107.23,163,100Zm7,51a6,6,0,1,1-6,6A6.185,6.185,0,0,1,170,151Z"/>
  </g>
</svg>
