<svg id="Bands_Diamond" data-name="Bands Diamond" xmlns="http://www.w3.org/2000/svg" width="256" height="256" viewBox="0 0 256 256">
  <defs>
    <style>
      .cls-1 {
        fill: #fff;
      }

      .cls-1, .cls-2, .cls-3, .cls-4 {
        fill-rule: evenodd;
      }

      .cls-2 {
        fill: #036;
      }

      .cls-4 {
        fill: #a60000;
      }
    </style>
  </defs>
  <path id="BG" class="cls-1" d="M128,23L233,128,128,234,23,128Z"/>
  <path id="OuterBand" class="cls-2" d="M128,19.46L236.54,128,128,236.54,19.46,128Zm0,5.427L231.113,128,128,231.113,24.887,128Z"/>
  <g id="Group_9_copy_6" data-name="Group 9 copy 6">
    <path id="Rectangle_33_copy_4" data-name="Rectangle 33 copy 4" class="cls-3" d="M150.184,108a4.615,4.615,0,0,1-4.5-4.217V92.053a3.959,3.959,0,0,1,3.791-4.171,4.15,4.15,0,0,1,4.03,4.171v11.731C153.579,106.007,152.41,107.914,150.184,108Zm13.349,2.034a4.014,4.014,0,0,1-1.478-5.495l6.271-10.063c1.115-1.924,3.372-2.97,5.3-1.859a4.36,4.36,0,0,1,1.54,5.769l-6.119,10.176A4.048,4.048,0,0,1,163.533,110.035Zm24.375,5.113a4.021,4.021,0,0,1-2.856,4.926l-11.7,3.124a4.024,4.024,0,1,1-2.09-7.771l11.7-3.123A4.041,4.041,0,0,1,187.908,115.148Zm-36.785.364c5.674-2.575,7.667-1.151,8.843,1.794,1.86,4.661,2.373,7.3,2.429,9.066,0.122,3.888-1.08,6.522-3.466,7.869-0.258.145-.509,0.281-0.765,0.425l3.08,11.5-10.4-7.48c-2.579,1.393-5.137,2.769-7.71,4.2l2.821,10.418-9.433-6.62c-1.781,1.062-3.577,2.16-5.414,3.348-8.234,5.326-6.413,10.857-.778,12.7a94.974,94.974,0,0,0,11.81,2.708l4.827-8.36,2.567,9.583c2.164,0.335,4.327.655,6.416,0.958l5.249-10.306,3.191,11.909c2.057,0.8,3.893,2.15,3.653,4.223-0.451,3.9.215,2.836-.866,7.173-0.033.133-.1,0.245-0.145,0.372l-3.294,3.294a12.154,12.154,0,0,1-6.616.416c-6.8-1.237-11.025-2.223-17.338-2.294-5.325-.061-9.645,4.132-11.009,5.725-4.184,4.889-7.736,7.969-13.781,16.185-0.387.527-.78,1.1-1.157,1.694L65.742,157.914c1.888-1.967,3.224-3.355,3.726-3.866,3.637-3.705,4.467-6.989-5.205-19.426-2.031-2.612-7.57-15.62-4.858-18.131s12.876,0.066,15.691,1.347a30.53,30.53,0,0,1,10.231,6.975c3.422,3.343,6.681,2.947,8.843,1.8,3.2-1.7,8.356-4.343,14.562-8.066,2.824-1.694,6.313-1.85,8.5.5,1.261,1.357,3.977,3.906,5.636,5.43,2.47,2.27,4.137,2.36,8.515.587C138.2,122.3,146.519,117.6,151.123,115.512Z"/>
    <path id="Rectangle_34_copy_8" data-name="Rectangle 34 copy 8" class="cls-4" d="M121,47c-0.2-9.865,14.281-9.952,14,0-0.213,7.537-2.711,38.149-3,41-0.309,3.045-7.614,3.156-8,0S121.148,54.23,121,47Zm7,51a6,6,0,1,1-6,6A6.185,6.185,0,0,1,128,98Z"/>
  </g>
</svg>
