<svg id="Bands_Diamond" data-name="Bands Diamond" xmlns="http://www.w3.org/2000/svg" width="256" height="256" viewBox="0 0 256 256">
  <defs>
    <style>
      .cls-1 {
        fill: #fff;
      }

      .cls-1, .cls-2, .cls-3, .cls-4, .cls-5, .cls-7, .cls-8 {
        fill-rule: evenodd;
      }

      .cls-2 {
        fill: #036;
      }

      .cls-3 {
        fill: #00ac3a;
      }

      .cls-5 {
        fill: #ffde00;
      }

      .cls-5, .cls-6 {
        stroke: #000;
        stroke-width: 1px;
      }

      .cls-6 {
        fill: #f78725;
      }

      .cls-7 {
        fill: #eb7d1d;
      }

      .cls-8 {
        fill: #a60000;
      }
    </style>
  </defs>
  <path id="BG" class="cls-1" d="M128,23L233,128,128,234,23,128Z"/>
  <path id="OuterBand" class="cls-2" d="M128,19.46L236.54,128,128,236.54,19.46,128Zm0,5.427L231.113,128,128,231.113,24.887,128Z"/>
  <path id="ColorBand_GREEN" data-name="ColorBand GREEN" class="cls-3" d="M128,0.14L255.86,128,128,255.86,0.14,128Zm0,19.32L236.54,128,128,236.54,19.46,128Z"/>
  <g>
    <g>
      <path id="Rectangle_48_copy" data-name="Rectangle 48 copy" class="cls-4" d="M83,113a1,1,0,0,1,1-1h4a1,1,0,0,1,1,1l4,61a1,1,0,0,1-1,1H89a1,1,0,0,1-1-1l-1.595-24.32-1.2,27.693-4.792-4.791Zm85-1h4a1,1,0,0,1,1,1l2.584,59.43-4.792,4.792-1.2-27.542L168,174a1,1,0,0,1-1,1h-3a1,1,0,0,1-1-1l4-61A1,1,0,0,1,168,112Z"/>
      <g>
        <path class="cls-5" d="M100,114.889V120H93v-5.111A6.435,6.435,0,1,1,100,114.889Z"/>
        <circle class="cls-6" cx="96.5" cy="109.5" r="4.5"/>
        <rect x="93" y="118" width="7" height="2"/>
      </g>
      <g id="Group_29_copy" data-name="Group 29 copy">
        <path class="cls-5" d="M163,114.889V120h-7v-5.111A6.435,6.435,0,1,1,163,114.889Z"/>
        <circle class="cls-6" cx="159.5" cy="109.5" r="4.5"/>
        <rect x="156" y="118" width="7" height="2"/>
      </g>
      <path class="cls-4" d="M84,145h88a2,2,0,0,1,2,2l1,16a2,2,0,0,1-2,2H83a2,2,0,0,1-2-2l1-16A2,2,0,0,1,84,145Zm1-26h86a2,2,0,0,1,2,2l1,16a2,2,0,0,1-2,2H84a2,2,0,0,1-2-2l1-16A2,2,0,0,1,85,119Z"/>
      <path id="Rectangle_49_copy" data-name="Rectangle 49 copy" class="cls-1" d="M86,147h84a2,2,0,0,1,2,2l1,12a2,2,0,0,1-2,2H85a2,2,0,0,1-2-2l1-12A2,2,0,0,1,86,147Zm1-26h82a2,2,0,0,1,2,2l1,12a2,2,0,0,1-2,2H86a2,2,0,0,1-2-2l1-12A2,2,0,0,1,87,121Z"/>
      <path class="cls-7" d="M173.211,161.012L159.9,147h10.936A9.678,9.678,0,0,1,173,150C173.357,150.868,173.317,156.33,173.211,161.012ZM159.9,121h10.325A6.562,6.562,0,0,1,172,124c0.331,1.459.333,5.9,0.252,10Zm-5.8,16-15.2-16h11l15.2,16h-11Zm-21,0-15.2-16h11l15.2,16h-11Zm-21,0L96.9,121h11l15.2,16h-11ZM84.622,147H86.9l15.2,16h-11l-7.716-8.122A49.551,49.551,0,0,1,84,148,2.093,2.093,0,0,1,84.622,147ZM91.1,137l-6.7-7.053c0.148-2.23.344-4.661,0.6-6.947a6.43,6.43,0,0,1,.526-2H86.9l15.2,16h-11Zm16.8,10,15.2,16h-11L96.9,147h11Zm21,0,15.2,16h-11l-15.2-16h11Zm21,0,15.2,16h-11l-15.2-16h11Z"/>
    </g>
    <path id="Rectangle_34_copy_9" data-name="Rectangle 34 copy 9" class="cls-8" d="M121,47c-0.2-9.865,14.281-9.952,14,0-0.213,7.537-2.711,38.149-3,41-0.309,3.045-7.614,3.156-8,0S121.148,54.23,121,47Zm7,51a6,6,0,1,1-6,6A6.185,6.185,0,0,1,128,98Z"/>
  </g>
</svg>
