<svg id="Bands_Diamond" data-name="Bands Diamond" xmlns="http://www.w3.org/2000/svg" width="256" height="256" viewBox="0 0 256 256">
  <defs>
    <style>
      .cls-1 {
        fill: #fff;
      }

      .cls-1, .cls-2, .cls-3, .cls-4 {
        fill-rule: evenodd;
      }

      .cls-2 {
        fill: #036;
      }

      .cls-3 {
        fill: #ff181e;
      }
    </style>
  </defs>
  <path id="BG" class="cls-1" d="M128,23L233,128,128,234,23,128Z"/>
  <path id="OuterBand" class="cls-2" d="M128,19.46L236.54,128,128,236.54,19.46,128Zm0,5.427L231.113,128,128,231.113,24.887,128Z"/>
  <path id="ColorBand_RED" data-name="ColorBand RED" class="cls-3" d="M128,0.14L255.86,128,128,255.86,0.14,128Zm0,19.32L236.54,128,128,236.54,19.46,128Z"/>
  <g>
    <path id="propane_LRG_copy_2" data-name="propane LRG copy 2" class="cls-1" d="M80,92.9h96V164H80V92.9ZM138,84V94H118V84h20Zm-27,78.293v5.95c0,1.7-2.288,2.976-4,2.976H88c-1.712,0-4-1.278-4-2.976v-5.95h27Zm60,0v5.95c0,1.7-2.288,2.976-4,2.976H148c-1.712,0-4-1.278-4-2.976v-5.95h27Z"/>
    <path id="propane_LRG" data-name="propane LRG" class="cls-4" d="M176,164h-1V93h1c11.237,0,28,14.85,28,35C204,148.537,186.462,164,176,164ZM84,93h30V88h-3c-2.519,0-3-.205-3-4a3,3,0,0,1,3-3h34c1.937,0,3-.1,3,3,0,4.1-.45,4-3,4h-3v5h30v71H84V93Zm52-5H120v5h16V88ZM52,128c0-20.1,16.763-35,28-35h1v71H80C68.763,164,52,147.415,52,128Zm59,45c0,1.712-2.288,3-4,3H88c-1.712,0-4-1.288-4-3v-6h27v6Zm60,0c0,1.712-2.288,3-4,3H148c-1.712,0-4-1.288-4-3v-6h27v6Z"/>
    <path id="fire_copy_16" data-name="fire copy 16" class="cls-1" d="M128.956,102.075c4.229,3.146,7.507,6.861,6.82,12.64-1.33,11.192,2.087,15.64,3.689,17.025,11.647,10.072,1.543-19.423,9.413-8.163,1.786,2.555,2.561,6.986,4.192,12.721,3.485,12.262-.476,23.468-14.07,22.7-0.054-12-4.088-7.845-8.822-18.923-9.739-22.789-3.793,17.967-11.452,18.968-2.625.158-6.076-.092-8.348-1.368a18.682,18.682,0,0,1-7.7-7.7c-1.905-4.21,2.265-9.695.7-14.8-1.172-3.835-.538-7.869.058-7.262,1.054,1.073,2.828,2.011,6.762,8.967,3.258,5.763,1.863-12.255,8.977-16.6C132.459,112.159,111.788,89.306,128.956,102.075Z"/>
  </g>
</svg>
