<svg id="Bands_Diamond" data-name="Bands Diamond" xmlns="http://www.w3.org/2000/svg" width="256" height="256" viewBox="0 0 256 256">
  <defs>
    <style>
      .cls-1 {
        fill: #fff;
      }

      .cls-1, .cls-2, .cls-3, .cls-4, .cls-5, .cls-6 {
        fill-rule: evenodd;
      }

      .cls-2 {
        fill: #036;
      }

      .cls-3 {
        fill: #00ac3a;
      }

      .cls-4 {
        fill: #636363;
      }

      .cls-5 {
        stroke: #000;
        stroke-width: 2px;
      }

      .cls-6 {
        fill: #a60000;
      }
    </style>
  </defs>
  <path id="BG" class="cls-1" d="M128,23L233,128,128,234,23,128Z"/>
  <path id="OuterBand" class="cls-2" d="M128,19.46L236.54,128,128,236.54,19.46,128Zm0,5.427L231.113,128,128,231.113,24.887,128Z"/>
  <path id="ColorBand_GREEN" data-name="ColorBand GREEN" class="cls-3" d="M128,0.14L255.86,128,128,255.86,0.14,128Zm0,19.32L236.54,128,128,236.54,19.46,128Z"/>
  <g id="Group_9_copy_10" data-name="Group 9 copy 10">
    <path class="cls-1" d="M104,147h48v38H104V147Zm-1,38h50v4H103v-4Z"/>
    <path id="Firetruck_copy" data-name="Firetruck copy" class="cls-4" d="M159,165l-6,6v18c0,0.974-2,2-2,2h-1v6c0,0.974-2,2-2,2h-5s-2-1.078-2-2v-6H115v6c0,0.974-2,2-2,2h-5s-2-1.078-2-2v-6h-1s-2-1.078-2-2V171l-6-6H95V149h8v-1c0-.922,2-3,2-3h15v-4h16v4h14s3,2.026,3,3v1h8v16h-2Zm-56-14h-3v14h0l3,3V151Zm23,0c0-1.1-.895-3-2-3H108a2,2,0,0,0-2,2v11a2,2,0,0,0,2,2h16a2,2,0,0,0,2-2V151Zm24,0c0-1.1-.9-3-2-3H132c-1.1,0-2,1.9-2,3v10a2,2,0,0,0,2,2h16a2,2,0,0,0,2-2V151Zm6,14V151h-3v17l3-3h0Zm-17-27H117v4h-7V132h7v3h22v-3h7v10h-7v-4Z"/>
    <g>
      <path class="cls-1" d="M114,94h32v4H114V94Zm-6,16h32v4H108v-4Z"/>
      <path id="powerpole" class="cls-5" d="M194,101l-17.464,10H202l2,2H176v58l-6,6V114.773L156.447,122.6a3.564,3.564,0,0,1-2.732-.732l-1-1.732a3.562,3.562,0,0,1,.732-2.732L157,115.351V112c0-1.105-.1-3,1-3h2c0.81,0,.968,1.02,1,2h3.54L170,107.845V97H139.923l1.308-2H170V94c0-1.1-.1-3,1-3h4c1.1,0,1,1.9,1,3v1h11Zm-33,12v0.041l0.072-.041H161Zm26-16H176v7.381l11-6.351V97Zm-31,16H129.462l1.307-2H156v2ZM118.846,95l-0.461,2H101v1h4c0.276,0.478.031,2.322-.447,2.6L86.536,111h28.618l-0.462,2H86v64l-6-6V114.773L66.447,122.6a3.562,3.562,0,0,1-2.732-.732l-1-1.732a3.56,3.56,0,0,1,.732-2.732L66,115.969V112c0-1.105-.1-3,1-3h2c0.81,0,.968,1.02,1,2h4.853L80,108.107V97H68l2-2H80V94c0-1.1-.1-3,1-3h4c1.1,0,1,1.9,1,3v1H97c0-1.1-.1-3,1-3h2c1.105,0,1,1.9,1,3h17.846ZM70,113v0.723L71.287,113H70ZM97,97H86v7.738l11-6.177V97ZM54,111H65v2H52Z"/>
      <path id="Rectangle_32_copy_3" data-name="Rectangle 32 copy 3" class="cls-6" d="M108,90l17-38h20L133,77h15l-33,52,9-39H108Z"/>
    </g>
  </g>
</svg>
